<svg version="1.1" id="图层_1" xmlns="http://www.w3.org/2000/svg" x="0" y="0" viewBox="0 0 36 36" style="enable-background:new 0 0 36 36" xml:space="preserve"><style>.st0{fill:#d8d8d8;fill-opacity:0}.st2{fill:none;stroke:#1da2b4;stroke-width:2;stroke-linecap:round}</style><g id="账户里有余额" transform="translate(-313 -612)"><g id="编组-27" transform="translate(280 289)"><g id="资金密码" transform="translate(33 323)"><path id="矩形" class="st0" d="M0 0h36v36H0z"/><path id="矩形_1_" class="st0" d="M3 3h30v30H3z"/><g id="web__谷歌验证" transform="translate(5 4)"><path id="椭圆形" d="m13.3 28 4.5-2c5-2.3 8.2-7.3 8.2-12.8V2c0-1.1-.9-2-2-2H2C.9 0 0 .9 0 2v11.1c0 5.6 3.3 10.6 8.4 12.8l4.9 2.1z" style="fill:none;stroke:#212833;stroke-width:2"/><g id="编组" transform="translate(7 6)"><path id="路径-7" class="st2" d="M0 5h12"/><path id="路径-7备份" class="st2" d="M0 10h12"/><path id="路径-7_1_" class="st2" d="m7 5 4-5"/><path id="路径-7备份-3" class="st2" d="M5 5 1 0"/><path id="路径-7备份-2" class="st2" d="M6 15V5"/></g></g></g></g></g></svg>