<svg version="1.1" id="图层_1" xmlns="http://www.w3.org/2000/svg" x="0" y="0" viewBox="0 0 36 36" style="enable-background:new 0 0 36 36" xml:space="preserve"><style>.st0{fill:#d8d8d8;fill-opacity:0}.st1{fill:none;stroke:#212833;stroke-width:2}</style><g id="个人中心"><g id="账户里有余额" transform="translate(-596 -612)"><g id="登录密码" transform="translate(316 323)"><path id="矩形" class="st0" d="M280 289h36v36h-36z"/><path id="矩形_1_" class="st0" d="M283 292h30v30h-30z"/><g id="web__谷歌验证" transform="translate(3 3)"><circle id="椭圆形" class="st1" cx="295" cy="304" r="14"/></g><path id="路径" class="st1" d="M288 317v-9.8c0-.6.7-1.2 1.5-1.2h16.9c.8 0 1.5.5 1.5 1.2v9.8"/><path id="路径_1_" d="M293 303.4v-.7c0-3.2 2.2-5.7 5-5.7s5 2.6 5 5.7v.7" style="fill:none;stroke:#212833;stroke-width:2;stroke-linecap:round"/><path id="矩形_2_" d="M298 309c.6 0 1 .4 1 1v5c0 .6-.4 1-1 1s-1-.4-1-1v-5c0-.6.4-1 1-1z" style="fill:#1da2b4"/></g></g></g></svg>