<svg width="24" height="24" fill="none" xmlns="http://www.w3.org/2000/svg"><path d="M22.39 6.27a11.947 11.947 0 0 0-4.367-4.367C16.184.83 14.177.293 12 .293c-2.177 0-4.185.537-6.023 1.61A11.946 11.946 0 0 0 1.609 6.27C.536 8.108 0 10.116 0 12.293c0 2.615.763 4.966 2.289 7.054 1.526 2.089 3.497 3.534 5.914 4.336.281.052.49.016.625-.109a.611.611 0 0 0 .203-.469l-.008-.843c-.005-.532-.008-.995-.008-1.39l-.36.061c-.228.043-.517.06-.866.055a6.596 6.596 0 0 1-1.086-.11 2.426 2.426 0 0 1-1.047-.468 1.983 1.983 0 0 1-.688-.96l-.156-.36a3.901 3.901 0 0 0-.492-.797c-.224-.291-.45-.49-.68-.593l-.109-.079a1.147 1.147 0 0 1-.203-.187.856.856 0 0 1-.14-.219c-.032-.073-.006-.133.077-.18.084-.047.235-.07.454-.07l.312.047c.208.042.466.166.773.375.308.208.56.479.758.812.24.427.529.753.867.977.339.224.68.336 1.024.336.343 0 .64-.027.89-.078.25-.053.485-.13.703-.235.094-.698.35-1.234.766-1.61a10.68 10.68 0 0 1-1.602-.28 6.377 6.377 0 0 1-1.468-.61 4.205 4.205 0 0 1-1.258-1.047c-.333-.417-.607-.964-.82-1.64-.214-.678-.32-1.459-.32-2.344 0-1.26.411-2.334 1.234-3.22-.386-.947-.35-2.01.11-3.186.301-.094.75-.024 1.343.21.594.235 1.028.436 1.305.602.276.167.497.308.664.422.969-.27 1.969-.406 3-.406 1.03 0 2.031.135 3 .406l.594-.375c.406-.25.885-.48 1.437-.687.552-.209.974-.266 1.266-.172.468 1.177.51 2.24.125 3.187.822.886 1.234 1.959 1.234 3.219 0 .885-.107 1.669-.32 2.351-.214.683-.49 1.23-.828 1.64-.339.412-.76.759-1.266 1.04a6.388 6.388 0 0 1-1.469.61c-.474.124-1.007.218-1.601.28.541.47.812 1.21.812 2.22v3.296c0 .187.065.344.196.468.13.125.335.162.617.11 2.417-.802 4.388-2.247 5.914-4.336C23.237 17.259 24 14.907 24 12.292c0-2.176-.538-4.184-1.61-6.022z" fill="#848E9C"/></svg>