<svg width="91" height="19" fill="none" xmlns="http://www.w3.org/2000/svg"><path d="M37.35 15.906V3.976h3.355V9.46l4.51-5.483h3.87l-4.87 5.68 5.123 6.25H45.24l-4.533-5.804v5.803H37.35zM56.294 16.154c-1.091 0-2.06-.223-2.908-.668a4.972 4.972 0 0 1-1.984-1.852c-.478-.79-.717-1.704-.717-2.741V3.977h3.381v6.841c0 .742.197 1.319.59 1.73.393.412.939.617 1.639.617.701 0 1.247-.202 1.638-.605.39-.403.588-.984.59-1.742V3.978h3.357v6.916c0 1.054-.235 1.977-.704 2.767a4.819 4.819 0 0 1-1.972 1.839c-.847.436-1.817.654-2.91.655zM69.271 16.154c-1.11 0-2.1-.276-2.971-.829a5.897 5.897 0 0 1-2.062-2.221c-.505-.932-.757-1.982-.757-3.15 0-1.17.252-2.224.757-3.163A5.892 5.892 0 0 1 66.3 4.556a5.447 5.447 0 0 1 2.971-.827 5.283 5.283 0 0 1 2.1.395c.596.25 1.129.621 1.563 1.087V0h3.331v15.906h-3.331v-1.21c-.44.454-.971.816-1.562 1.063a5.309 5.309 0 0 1-2.101.395zm.744-3.04c.921 0 1.664-.3 2.229-.902.564-.6.846-1.379.844-2.334 0-.937-.281-1.706-.844-2.309-.563-.602-1.306-.902-2.229-.9-.924 0-1.672.3-2.243.902-.572.601-.858 1.379-.857 2.333 0 .937.285 1.707.857 2.31.57.603 1.318.903 2.243.9zM77.594 15.906l4.51-6.1-4.253-5.83h3.967l2.384 3.509 2.356-3.508h3.764l-4.172 5.78 4.408 6.15h-3.945l-2.59-3.825-2.64 3.825h-3.788z" fill="#fff"/><path d="M35.288 0h-7.544l-8.615 8.854c-1.974 2.03-1.973 4.98 0 7.006l2.804 2.874h7.546l-5.801-5.95a.613.613 0 0 1-.186-.437c0-.164.067-.321.186-.438L35.288 0zM13.355 0H5.81l5.8 5.95c.12.116.187.274.187.438a.613.613 0 0 1-.186.438L0 18.734h7.546l8.62-8.842c1.977-2.03 1.976-4.984 0-7.012L13.356 0z" fill="#1772F8"/></svg>