<svg width="24" height="24" fill="none" xmlns="http://www.w3.org/2000/svg"><g clip-path="url(#a)" fill="#2E2F30"><path opacity=".4" d="M7.481 9.91h-4.5a.563.563 0 0 1-.562-.563v-4.5a.562.562 0 1 1 1.125 0v3.14l2.222-2.222a8.84 8.84 0 0 1 12.468 0 .572.572 0 0 1-.182.923.553.553 0 0 1-.615-.126 7.697 7.697 0 0 0-10.875 0L4.341 8.784h3.14a.562.562 0 1 1 0 1.125zm13.538 4.18h-4.5a.562.562 0 1 0 0 1.125h3.14l-2.222 2.222a7.697 7.697 0 0 1-10.875 0 .553.553 0 0 0-.796 0 .572.572 0 0 0 0 .797 8.831 8.831 0 0 0 12.468 0l2.222-2.222v3.14a.562.562 0 0 0 1.125 0v-4.5a.563.563 0 0 0-.562-.562z"/><path fill-rule="evenodd" clip-rule="evenodd" d="M14.586 10.239c-.085-.74-.73-.977-1.538-1.034l-.018-1.028-.626.01.017 1.002c-.164.003-.332.009-.5.015l-.017-1.008-.625.011.017 1.028c-.135.005-.268.01-.398.012v-.003l-.863.015.011.669s.463-.017.455-.009c.254-.004.339.142.365.268l.02 1.172c.018 0 .04 0 .067.003l-.066.001.028 1.641c-.01.08-.054.208-.232.212.008.007-.455.008-.455.008l-.11.75.814-.015.273-.003.174-.001.018 1.04.626-.01-.018-1.03c.171 0 .337 0 .5-.004l.017 1.025.626-.011-.018-1.038c1.051-.08 1.784-.357 1.857-1.347.06-.797-.32-1.145-.92-1.278.36-.192.581-.521.518-1.063zm-.837 2.239c.012.713-1.109.717-1.621.719h-.122l-.024-1.377c.043 0 .094-.003.153-.005.525-.022 1.6-.066 1.614.663zm-1.675-1.29c.428 0 1.36 0 1.35-.649-.012-.663-.909-.624-1.347-.604-.049.002-.092.004-.128.004l.022 1.25h.103z"/></g><defs><clipPath id="a"><path fill="#fff" d="M0 0h24v24H0z"/></clipPath></defs></svg>