<svg version="1.1" id="图层_1" xmlns="http://www.w3.org/2000/svg" x="0" y="0" viewBox="0 0 36 36" style="enable-background:new 0 0 36 36" xml:space="preserve"><style>.st0{fill:#d8d8d8;fill-opacity:0}.st1,.st2{fill:none;stroke:#212833;stroke-width:2}.st2{stroke:#1da2b4;stroke-linecap:round}</style><g id="个人中心"><g id="账户里有余额" transform="translate(-314 -390)"><g id="邮箱验证" transform="translate(34 101)"><path id="矩形" class="st0" d="M280 289h36v36h-36z"/><path id="矩形_1_" class="st0" d="M283 292h30v30h-30z"/><path id="路径" class="st1" d="m311 308-12.2 5.6c-.5.2-1.1.2-1.7 0L285 308"/><path id="路径_1_" class="st1" d="M289.1 303H287c-1.1 0-2 .9-2 2v14c0 1.1.9 2 2 2h22c1.1 0 2-.9 2-2v-14c0-1.1-.9-2-2-2h-2.2"/><path id="路径_2_" class="st1" d="M289 310v-14c0-1.1.9-2 2-2h14c1.1 0 2 .9 2 2v14"/><path id="路径_3_" class="st2" d="M293 299h10"/><path id="路径_4_" class="st2" d="M293 304h8"/></g></g></g></svg>