<svg version="1.1" id="图层_1" xmlns="http://www.w3.org/2000/svg" x="0" y="0" viewBox="0 0 36 36" style="enable-background:new 0 0 36 36" xml:space="preserve"><style>.st0{fill:#d8d8d8;fill-opacity:0}</style><g id="个人中心"><g id="编组-27" transform="translate(280 289)"><g id="谷歌" transform="translate(34 212)"><path id="矩形" class="st0" d="M-314-501h36v36h-36z"/><path id="矩形_1_" class="st0" d="M-311-498h30v30h-30z"/><path id="矩形_2_" style="fill-opacity:0" d="M-308-495h25v25h-25z"/><path id="形状" d="M-299.8-472c-.1 0-.1 0 0 0h-.1c-.4 0-1.7 0-2.9-.6-1.4-.7-2.1-1.8-2.1-3.4 0-1.6.8-2.7 2.4-3.4 1.4-.6 3-.6 3.6-.6h.7l-.4-.5c-.8-1-.6-2.1-.6-2.1l.1-.4h-.7c-.5 0-1.5-.1-2.4-.6-1-.7-1.6-1.9-1.6-3.5 0-1.9.8-3.3 2.5-4.1 1.2-.6 2.5-.7 2.6-.7l3.5.1s-.9.3-1.1.4l-.5.3.5.3c1.2.6 1.4 1.6 1.4 3.3 0 1.9-.8 2.8-1.4 3.5-.5.5-1 .9-1 1.5s.6 1.1 1.3 1.7c.5.5 1.1 1 1.5 1.6.5.7.8 1.5.8 2.4 0 1-.2 1.9-.6 2.6-.4.7-1 1.3-1.9 1.7-1.3.7-2.7.7-3.3.7l-.3-.2zm.2-7c-1 .1-1.8.5-2.5 1.1-.7.6-1 1.5-.9 2.3.1 1.5 1.5 2.6 3.4 2.6h.4c2-.2 3.3-1.5 3.2-3.1-.1-1.7-1.4-2.8-3.2-2.8-.2-.1-.3-.1-.4-.1zm-.9-11.9c-.6.2-1.1.7-1.4 1.5-.3.8-.3 1.6-.1 2.5.2.8.6 1.5 1 2 .5.5 1.1.8 1.6.8.2 0 .3 0 .5-.1.6-.2 1.2-.8 1.5-1.6.3-.8.3-1.8.1-2.7-.5-1.8-1.3-2.6-2.8-2.6 0 .2-.2.2-.4.2z" style="fill:#212833"/><circle id="椭圆形" cx="-296" cy="-482" r="15" style="fill:none;stroke:#212833;stroke-width:2"/><path id="形状结合" d="M-289-487c.6 0 1 .4 1 1v3h3c.6 0 1 .4 1 1s-.4 1-1 1h-3v3c0 .6-.4 1-1 1s-1-.4-1-1v-3h-3c-.6 0-1-.4-1-1s.4-1 1-1h3v-3c0-.6.4-1 1-1z" style="fill:#1da2b4"/></g></g></g></svg>