<svg width="68" height="24" fill="none" xmlns="http://www.w3.org/2000/svg"><path d="M35.332 17h-6.698v-1.615l3.706-4.709h-3.706V8.789h6.63v1.564l-3.757 4.76h3.825V17zm2.865-9.095c-.352 0-.658-.125-.918-.374a1.285 1.285 0 0 1-.374-.918c0-.351.124-.652.374-.901.26-.25.566-.374.918-.374.362 0 .668.125.918.374.249.25.374.55.374.901s-.125.657-.374.918c-.25.25-.556.374-.918.374zM39.285 17h-2.16V8.789h2.16V17zm10.165 0h-2.704l-2.175-3.162-.986 1.054V17h-2.16V5.661h2.16v6.783l3.11-3.655h2.652L46.1 12.512 49.45 17zm4.832.204c-1.269 0-2.317-.397-3.144-1.19-.828-.793-1.241-1.836-1.241-3.128 0-1.213.396-2.233 1.19-3.06.804-.827 1.824-1.241 3.06-1.241 1.224 0 2.215.42 2.974 1.258.76.827 1.14 1.915 1.14 3.264v.476h-6.104c.069.544.312.997.732 1.36.419.363.963.544 1.631.544.363 0 .754-.074 1.173-.221.431-.147.771-.346 1.02-.595l.953 1.394c-.828.76-1.955 1.139-3.383 1.139zm1.888-5.083c-.035-.465-.221-.884-.562-1.258-.328-.374-.816-.561-1.461-.561-.612 0-1.088.187-1.428.561-.34.363-.539.782-.596 1.258h4.047zM67.317 17h-2.414l-1.87-2.771L61.146 17h-2.397l2.907-4.216-2.737-3.995h2.414l1.7 2.533 1.683-2.533h2.414l-2.754 3.995L67.317 17zM.905 16.253a32.742 32.742 0 0 1 7.88-7.64c.065-.045.026-.148-.053-.137-1.087.159-2.16.385-3.215.676-.317.087-.589-.255-.425-.54l.928-1.605a1.74 1.74 0 0 1 1.182-.85 29.12 29.12 0 0 1 9.819-.144c.609.095.65.936.072 1.15a31.5 31.5 0 0 0-2.614 1.104 30.538 30.538 0 0 0-9.9 7.49l-2.413 3.027-.04.039A11.97 11.97 0 0 1 .82 16.367l.086-.114zM23.838 10.607l-.157.026a26.58 26.58 0 0 0-9.198 3.42c-.063.037-.04.133.032.14 1.358.123 2.714.384 4.05.785.257.078.333.4.142.59l-1.39 1.38a.612.612 0 0 1-.57.158 17.984 17.984 0 0 0-8.372.055c-.603.149-1.092-.582-.655-1.023.636-.642 1.3-1.249 1.99-1.82a28.562 28.562 0 0 1 9.64-5.24 29.566 29.566 0 0 1 3.914-.949l.091-.02c.274.798.465 1.634.565 2.498h-.082z" fill="#fff"/></svg>