<svg width="24" height="24" fill="none" xmlns="http://www.w3.org/2000/svg"><path clip-rule="evenodd" d="M18.865 5.124c.437.153.729.565.729 1.028v6.773c0 1.893-.688 3.7-1.903 5.1-.611.705-1.384 1.254-2.205 1.698l-3.558 1.922-3.564-1.923c-.822-.444-1.596-.992-2.208-1.698A7.783 7.783 0 0 1 4.25 12.92V6.15c0-.462.292-.874.729-1.027l6.582-2.313a1.09 1.09 0 0 1 .722 0l6.582 2.313z" stroke="#2E2F30" stroke-width="1.5" stroke-linecap="round" stroke-linejoin="round"/><path opacity=".4" d="m9.323 11.918 1.891 1.893 3.899-3.898" stroke="#2E2F30" stroke-width="1.5" stroke-linecap="round" stroke-linejoin="round"/></svg>