<svg width="24" height="24" fill="none" xmlns="http://www.w3.org/2000/svg"><path d="M13.875 9.075c-1.275-.15-2.55.3-3.45 1.125-1.275 1.2-1.575 3.075-.825 4.65.15.225.15.525 0 .75-.15.45-.525.9-.9 1.275.75.3 1.425.525 2.475.675a9.828 9.828 0 0 0 2.1 0c.975-.075 2.175-.6 3-1.35 1.65-1.575 1.725-4.275.075-5.925-.675-.675-1.575-1.05-2.475-1.2z" fill="#848E9C"/><path d="M12 0C5.4 0 0 5.4 0 12s5.4 12 12 12 12-5.4 12-12S18.6 0 12 0zm5.25 17.1c-1.05.975-2.4 1.725-3.75 1.8a13.64 13.64 0 0 1-2.475 0C8.175 18.525 6 17.175 6 17.175s1.65-.375 2.175-1.65v-.075c-.375-.225-.75-.45-1.125-.75-2.25-1.95-2.55-5.25-.6-7.5.9-1.05 2.175-1.8 3.45-2.025 3.9-.75 7.35 1.05 7.35 1.05s-1.5.45-1.95 1.65c.75.3 1.425.675 2.025 1.275a5.659 5.659 0 0 1-.075 7.95z" fill="#848E9C"/></svg>