<svg width="26" height="26" fill="none" xmlns="http://www.w3.org/2000/svg"><path opacity=".2" d="M25.93 13c0 7.142-5.79 12.931-12.932 12.931S.067 20.141.067 13C.067 5.858 5.857.068 12.998.068 20.14.068 25.93 5.858 25.93 13" fill="#00A478"/><path d="M11.672 12.774V10.51H8.604V8.528h8.574v2.011h-3.069v2.235h-2.437z" fill="#00A478"/><path fill-rule="evenodd" clip-rule="evenodd" d="M7.285 13.025c0-.754 2.466-1.369 5.534-1.369 3.068 0 5.535.615 5.535 1.369s-2.466 1.368-5.535 1.368c-3.068 0-5.534-.614-5.534-1.368zm10.61 0c-.2-.28-1.864-1.145-5.076-1.145-3.212 0-4.875.838-5.076 1.145.201.28 1.864.698 5.076.698 3.24 0 4.875-.419 5.076-.698z" fill="#00A478"/><path d="M14.11 13.472v-1.565a18.248 18.248 0 0 0-1.262-.055c-.402 0-.775 0-1.147.027v1.565c.344 0 .745.027 1.147.027.43.028.86.028 1.261 0zM12.82 14.393c-.402 0-.775 0-1.148-.028v4.161h2.409v-4.19c-.402.029-.832.057-1.262.057z" fill="#00A478"/></svg>