<svg width="593" height="248" viewBox="0 0 593 248" fill="none" xmlns="http://www.w3.org/2000/svg">
<g clip-path="url(#clip0_107:906)">
<g opacity="0.44">
<circle opacity="0.8" cx="405" cy="165" r="164.5" stroke="#0055FE"/>
<circle opacity="0.8" cx="405" cy="165" r="119" stroke="#0055FE" stroke-width="2"/>
<circle opacity="0.24" cx="405" cy="165" r="122" transform="rotate(150 405 165)" stroke="url(#paint0_linear_107:906)" stroke-width="8"/>
<circle opacity="0.6" cx="405" cy="165" r="244.5" stroke="#0055FE"/>
<circle opacity="0.4" cx="405" cy="165" r="324.5" stroke="#0055FE"/>
<circle opacity="0.2" cx="405" cy="165" r="404.5" stroke="#0055FE"/>
</g>
<path fill-rule="evenodd" clip-rule="evenodd" d="M1033.29 250.534C1033.17 250.537 1033.05 250.566 1032.94 250.618C1032.84 250.671 1032.75 250.746 1032.67 250.839C1032.6 250.932 1032.55 251.039 1032.52 251.155C1032.49 251.27 1032.49 251.39 1032.51 251.506C1032.54 251.661 1032.62 251.803 1032.74 251.914C1032.85 252.025 1032.99 252.101 1033.15 252.131C1033.27 252.153 1033.39 252.149 1033.5 252.12C1033.62 252.09 1033.72 252.036 1033.81 251.96C1033.91 251.884 1033.98 251.789 1034.03 251.682C1034.08 251.574 1034.11 251.457 1034.11 251.339C1034.11 251.232 1034.08 251.126 1034.04 251.028C1034 250.93 1033.94 250.841 1033.86 250.766C1033.79 250.691 1033.7 250.632 1033.6 250.593C1033.5 250.553 1033.39 250.533 1033.29 250.534V250.534ZM623.418 317.431C623.299 317.434 623.183 317.463 623.077 317.515C622.97 317.568 622.877 317.644 622.803 317.737C622.73 317.83 622.677 317.937 622.649 318.053C622.622 318.168 622.62 318.288 622.644 318.404C622.675 318.56 622.753 318.703 622.866 318.814C622.979 318.926 623.123 319.001 623.279 319.031C623.45 319.064 623.627 319.042 623.784 318.967C623.94 318.892 624.069 318.769 624.15 318.615C624.231 318.461 624.26 318.285 624.233 318.114C624.206 317.942 624.124 317.784 624 317.662C623.923 317.586 623.832 317.526 623.731 317.485C623.631 317.444 623.523 317.424 623.415 317.426L623.418 317.431ZM-342.294 -301.716C-342.209 -301.77 -342.138 -301.842 -342.085 -301.927C-342.031 -302.012 -341.997 -302.108 -341.986 -302.208C-341.986 -302.307 -341.997 -302.408 -342.03 -302.501C-342.064 -302.594 -342.116 -302.68 -342.184 -302.752C-342.322 -302.925 -342.515 -303.047 -342.731 -303.095C-342.947 -303.143 -343.173 -303.116 -343.372 -303.018C-343.46 -302.965 -343.526 -302.893 -343.581 -302.808C-343.634 -302.723 -343.668 -302.627 -343.679 -302.527C-343.69 -302.428 -343.679 -302.327 -343.647 -302.232C-343.614 -302.136 -343.557 -302.05 -343.482 -301.982C-343.345 -301.809 -343.151 -301.687 -342.935 -301.639C-342.719 -301.591 -342.493 -301.618 -342.294 -301.716V-301.716ZM256.99 -103.587C256.905 -103.639 256.834 -103.711 256.781 -103.797C256.728 -103.881 256.694 -103.977 256.683 -104.077C256.671 -104.177 256.683 -104.278 256.715 -104.372C256.748 -104.468 256.805 -104.554 256.88 -104.622C257.019 -104.795 257.213 -104.916 257.43 -104.965C257.645 -105.013 257.87 -104.986 258.068 -104.889C258.153 -104.835 258.224 -104.763 258.277 -104.678C258.331 -104.593 258.365 -104.498 258.376 -104.398C258.376 -104.299 258.365 -104.198 258.332 -104.104C258.299 -104.011 258.246 -103.926 258.178 -103.854C258.035 -103.681 257.848 -103.56 257.628 -103.512C257.419 -103.462 257.188 -103.49 256.99 -103.587V-103.587ZM1303.05 -68.7842C1302.88 -68.8897 1302.73 -69.0332 1302.62 -69.2037C1302.51 -69.3742 1302.44 -69.5673 1302.42 -69.7685C1302.39 -69.9696 1302.42 -70.1736 1302.48 -70.3648C1302.55 -70.5561 1302.66 -70.7297 1302.8 -70.8725C1303.08 -71.2198 1303.48 -71.4606 1303.91 -71.5552C1304.35 -71.6498 1304.8 -71.5923 1305.2 -71.3924C1305.46 -71.2324 1305.66 -70.9893 1305.76 -70.7029C1305.86 -70.4165 1305.86 -70.1039 1305.77 -69.8163C1305.7 -69.6261 1305.59 -69.4525 1305.45 -69.3096C1305.17 -68.9601 1304.78 -68.7172 1304.34 -68.6215C1303.9 -68.5259 1303.45 -68.5833 1303.05 -68.7842H1303.05V-68.7842ZM-91.5126 361.166C-91.8206 361.176 -92.1175 361.276 -92.3705 361.454C-92.6234 361.632 -92.8104 361.88 -92.9203 362.167C-93.0303 362.454 -93.0634 362.767 -92.9974 363.068C-92.9314 363.368 -92.7774 363.643 -92.5575 363.857C-92.3359 364.071 -92.0564 364.215 -91.7536 364.271C-91.4508 364.327 -91.1382 364.293 -90.8546 364.174C-90.571 364.054 -90.3288 363.853 -90.1584 363.597C-89.988 363.34 -89.8968 363.039 -89.8961 362.732C-89.8961 362.522 -89.9401 362.315 -90.028 362.123C-90.105 361.93 -90.2261 361.757 -90.38 361.611C-90.523 361.464 -90.7099 361.35 -90.8969 361.274C-91.0948 361.197 -91.3037 361.16 -91.5126 361.164V361.166V361.166ZM-387.251 96.0303C-387.166 95.9783 -387.095 95.9076 -387.042 95.8236C-386.962 95.6974 -386.927 95.5476 -386.943 95.3988C-386.958 95.25 -387.025 95.1111 -387.13 95.0048C-387.262 94.8344 -387.46 94.7146 -387.669 94.6685C-387.889 94.6212 -388.109 94.6487 -388.307 94.7465C-388.395 94.7982 -388.461 94.8696 -388.516 94.9532C-388.595 95.0798 -388.63 95.2296 -388.614 95.3784C-388.598 95.5271 -388.532 95.6662 -388.428 95.7731C-388.292 95.9457 -388.101 96.0662 -387.886 96.1142C-387.672 96.1623 -387.448 96.135 -387.251 96.0369V96.0303V96.0303ZM1267.44 722.209C1267.36 722.156 1267.29 722.085 1267.24 722.001C1267.18 721.918 1267.15 721.824 1267.13 721.726C1267.12 721.626 1267.14 721.525 1267.17 721.43C1267.2 721.335 1267.25 721.248 1267.32 721.176C1267.46 721.001 1267.65 720.881 1267.87 720.835C1268.08 720.792 1268.31 720.823 1268.5 720.923C1268.59 720.976 1268.66 721.047 1268.71 721.132C1268.76 721.214 1268.8 721.309 1268.81 721.407C1268.82 721.505 1268.81 721.603 1268.78 721.696C1268.74 721.789 1268.69 721.874 1268.62 721.945C1268.49 722.11 1268.29 722.231 1268.08 722.286C1267.87 722.33 1267.64 722.308 1267.44 722.209V722.209ZM-544.402 448.943C-544.457 448.746 -544.479 448.54 -544.446 448.337C-544.416 448.135 -544.345 447.941 -544.237 447.767C-544.127 447.593 -543.984 447.446 -543.808 447.333C-543.639 447.218 -543.448 447.142 -543.247 447.11C-542.841 446.935 -542.386 446.908 -541.962 447.033C-541.538 447.159 -541.172 447.43 -540.927 447.798C-540.872 447.994 -540.85 448.201 -540.883 448.404C-540.905 448.608 -540.982 448.802 -541.092 448.976C-541.202 449.15 -541.345 449.298 -541.51 449.411C-541.686 449.524 -541.884 449.599 -542.081 449.632C-542.488 449.804 -542.942 449.83 -543.366 449.704C-543.789 449.578 -544.155 449.309 -544.402 448.943V448.943ZM-608.065 128.261C-607.977 128.311 -607.902 128.382 -607.847 128.467C-607.791 128.552 -607.757 128.649 -607.746 128.75C-607.735 128.85 -607.746 128.952 -607.779 129.048C-607.812 129.143 -607.856 129.231 -607.933 129.303L-608.065 128.261ZM175.952 -438.93C176.041 -438.986 176.119 -439.057 176.183 -439.141C176.297 -439.315 176.344 -439.525 176.315 -439.731C176.295 -439.833 176.258 -439.93 176.205 -440.019C176.095 -440.198 175.908 -440.326 175.699 -440.374C175.545 -440.41 175.384 -440.4 175.235 -440.346C175.087 -440.292 174.958 -440.196 174.863 -440.07C174.806 -439.984 174.765 -439.888 174.742 -439.787C174.722 -439.685 174.718 -439.58 174.731 -439.477C174.754 -439.376 174.795 -439.279 174.852 -439.191C174.964 -439.012 175.142 -438.884 175.348 -438.835C175.554 -438.786 175.771 -438.821 175.952 -438.931V-438.93ZM1255.76 -422.196C1255.67 -422.248 1255.6 -422.318 1255.55 -422.402C1255.49 -422.486 1255.46 -422.581 1255.45 -422.679C1255.44 -422.778 1255.45 -422.879 1255.48 -422.973C1255.51 -423.067 1255.57 -423.153 1255.64 -423.222C1255.77 -423.393 1255.97 -423.511 1256.18 -423.558C1256.4 -423.605 1256.62 -423.577 1256.82 -423.48C1256.9 -423.427 1256.97 -423.356 1257.03 -423.273C1257.08 -423.189 1257.11 -423.094 1257.13 -422.996C1257.14 -422.897 1257.13 -422.797 1257.09 -422.702C1257.06 -422.608 1257.01 -422.523 1256.94 -422.453C1256.8 -422.281 1256.61 -422.162 1256.39 -422.115C1256.18 -422.068 1255.95 -422.097 1255.76 -422.196ZM232.4 721.066C232.176 721.065 231.958 720.987 231.784 720.845C231.61 720.703 231.49 720.506 231.444 720.286C231.432 720.186 231.444 720.084 231.477 719.989C231.508 719.891 231.565 719.804 231.642 719.736C231.709 719.659 231.797 719.602 231.895 719.571C231.994 719.538 232.093 719.527 232.192 719.538C232.416 719.539 232.634 719.617 232.808 719.759C232.982 719.901 233.102 720.099 233.148 720.319C233.159 720.418 233.148 720.516 233.115 720.615C233.082 720.714 233.027 720.802 232.95 720.868C232.884 720.945 232.796 721 232.697 721.033C232.598 721.066 232.499 721.077 232.4 721.066Z" fill="white"/>
<g opacity="0.24" filter="url(#filter0_f_107:906)">
<path d="M632.936 155.772C632.936 220.113 580.777 272.272 516.436 272.272C452.095 272.272 399.936 220.113 399.936 155.772C399.936 91.4309 452.095 39.2721 516.436 39.2721C580.777 39.2721 632.936 91.4309 632.936 155.772Z" fill="#0055FE"/>
</g>
<circle cx="170" cy="88" r="22" fill="url(#paint1_radial_107:906)"/>
<g filter="url(#filter1_d_107:906)">
<path d="M295 165C295 104.249 344.249 55 405 55V55C465.751 55 515 104.249 515 165V165C515 225.751 465.751 275 405 275V275C344.249 275 295 225.751 295 165V165Z" fill="#0055FE"/>
<path d="M336.753 187.359C349.776 169.723 365.461 154.827 382.982 142.878C383.368 142.614 383.136 142.014 382.673 142.081C376.3 143.005 369.999 144.319 363.809 146.013C361.954 146.521 360.358 144.53 361.321 142.875L366.761 133.525C368.253 130.96 370.766 129.125 373.699 128.582C386.674 126.183 399.973 125.27 413.316 125.916C419.313 126.206 425.318 126.811 431.307 127.738C434.879 128.291 435.12 133.189 431.729 134.435C426.521 136.348 421.403 138.491 416.392 140.86C394.509 151.207 374.666 165.865 358.306 184.477L344.149 202.095L343.922 202.321C340.836 197.899 338.252 193.106 336.25 188.023L336.753 187.359Z" fill="white"/>
<path d="M471.306 154.484C470.998 154.535 470.691 154.587 470.384 154.64C451.264 157.931 432.932 164.651 416.415 174.548C416.048 174.767 416.181 175.323 416.608 175.362C424.571 176.085 432.53 177.6 440.366 179.939C441.874 180.389 442.321 182.269 441.203 183.37L433.044 191.403C432.168 192.266 430.901 192.605 429.699 192.328C418.147 189.664 406.387 188.987 394.905 190.171C390.068 190.669 385.28 191.499 380.578 192.649C377.041 193.514 374.175 189.256 376.739 186.689C380.471 182.954 384.366 179.419 388.409 176.09C405.142 162.309 424.395 152.044 444.969 145.588C452.469 143.235 460.144 141.388 467.937 140.061L468.473 139.945C470.076 144.59 471.2 149.456 471.786 154.484H471.306Z" fill="white"/>
</g>
<g style="mix-blend-mode:overlay">
<circle cx="405" cy="165" r="110" fill="url(#paint2_radial_107:906)"/>
</g>
<g style="mix-blend-mode:overlay">
<circle cx="405" cy="165" r="104.5" stroke="url(#paint3_radial_107:906)" stroke-width="11"/>
</g>
<g style="mix-blend-mode:overlay" filter="url(#filter2_f_107:906)">
<circle cx="405" cy="165" r="104.5" stroke="url(#paint4_radial_107:906)" stroke-width="11"/>
</g>
<g style="mix-blend-mode:overlay" opacity="0.12">
<circle r="104.5" transform="matrix(-1 0 0 1 405 165)" stroke="url(#paint5_radial_107:906)" stroke-width="11"/>
</g>
<g style="mix-blend-mode:overlay" opacity="0.12" filter="url(#filter3_f_107:906)">
<circle r="104.5" transform="matrix(-1 0 0 1 405 165)" stroke="url(#paint6_radial_107:906)" stroke-width="11"/>
</g>
<g style="mix-blend-mode:overlay" opacity="0.16">
<circle cx="405" cy="165" r="110" fill="url(#paint7_radial_107:906)"/>
</g>
<circle cx="562" r="11" fill="#DCEAF9"/>
<circle cx="507.747" cy="103.923" r="4" transform="rotate(-30 507.747 103.923)" fill="url(#paint8_radial_107:906)"/>
<circle cx="301.464" cy="222.866" r="4" transform="rotate(-30 301.464 222.866)" fill="url(#paint9_radial_107:906)"/>
<circle cx="346.634" cy="60.7529" r="4" transform="rotate(-30 346.634 60.7529)" fill="url(#paint10_radial_107:906)"/>
</g>
<defs>
<filter id="filter0_f_107:906" x="139.936" y="-220.728" width="753" height="753" filterUnits="userSpaceOnUse" color-interpolation-filters="sRGB">
<feFlood flood-opacity="0" result="BackgroundImageFix"/>
<feBlend mode="normal" in="SourceGraphic" in2="BackgroundImageFix" result="shape"/>
<feGaussianBlur stdDeviation="130" result="effect1_foregroundBlur_107:906"/>
</filter>
<filter id="filter1_d_107:906" x="231" y="55" width="348" height="348" filterUnits="userSpaceOnUse" color-interpolation-filters="sRGB">
<feFlood flood-opacity="0" result="BackgroundImageFix"/>
<feColorMatrix in="SourceAlpha" type="matrix" values="0 0 0 0 0 0 0 0 0 0 0 0 0 0 0 0 0 0 127 0" result="hardAlpha"/>
<feOffset dy="64"/>
<feGaussianBlur stdDeviation="32"/>
<feComposite in2="hardAlpha" operator="out"/>
<feColorMatrix type="matrix" values="0 0 0 0 0 0 0 0 0 0 0 0 0 0 0 0 0 0 1 0"/>
<feBlend mode="soft-light" in2="BackgroundImageFix" result="effect1_dropShadow_107:906"/>
<feBlend mode="normal" in="SourceGraphic" in2="effect1_dropShadow_107:906" result="shape"/>
</filter>
<filter id="filter2_f_107:906" x="263" y="23" width="284" height="284" filterUnits="userSpaceOnUse" color-interpolation-filters="sRGB">
<feFlood flood-opacity="0" result="BackgroundImageFix"/>
<feBlend mode="normal" in="SourceGraphic" in2="BackgroundImageFix" result="shape"/>
<feGaussianBlur stdDeviation="16" result="effect1_foregroundBlur_107:906"/>
</filter>
<filter id="filter3_f_107:906" x="263" y="23" width="284" height="284" filterUnits="userSpaceOnUse" color-interpolation-filters="sRGB">
<feFlood flood-opacity="0" result="BackgroundImageFix"/>
<feBlend mode="normal" in="SourceGraphic" in2="BackgroundImageFix" result="shape"/>
<feGaussianBlur stdDeviation="16" result="effect1_foregroundBlur_107:906"/>
</filter>
<linearGradient id="paint0_linear_107:906" x1="405" y1="47" x2="405" y2="283" gradientUnits="userSpaceOnUse">
<stop stop-color="#0055FE"/>
<stop offset="1" stop-color="#0055FE" stop-opacity="0"/>
</linearGradient>
<radialGradient id="paint1_radial_107:906" cx="0" cy="0" r="1" gradientUnits="userSpaceOnUse" gradientTransform="translate(148 66) rotate(45) scale(52.3259)">
<stop offset="0.295312" stop-color="#9AC3ED"/>
<stop offset="1" stop-color="#98C1EC" stop-opacity="0"/>
</radialGradient>
<radialGradient id="paint2_radial_107:906" cx="0" cy="0" r="1" gradientUnits="userSpaceOnUse" gradientTransform="translate(295 55) rotate(45) scale(261.63)">
<stop offset="0.295312" stop-color="#9AC3ED"/>
<stop offset="1" stop-color="#98C1EC" stop-opacity="0"/>
</radialGradient>
<radialGradient id="paint3_radial_107:906" cx="0" cy="0" r="1" gradientUnits="userSpaceOnUse" gradientTransform="translate(295 55) rotate(45) scale(261.63)">
<stop offset="0.295312" stop-color="#9AC3ED"/>
<stop offset="1" stop-color="#98C1EC" stop-opacity="0"/>
</radialGradient>
<radialGradient id="paint4_radial_107:906" cx="0" cy="0" r="1" gradientUnits="userSpaceOnUse" gradientTransform="translate(295 55) rotate(45) scale(261.63)">
<stop offset="0.295312" stop-color="#9AC3ED"/>
<stop offset="1" stop-color="#98C1EC" stop-opacity="0"/>
</radialGradient>
<radialGradient id="paint5_radial_107:906" cx="0" cy="0" r="1" gradientUnits="userSpaceOnUse" gradientTransform="rotate(45) scale(261.63)">
<stop offset="0.295312" stop-color="#9AC3ED"/>
<stop offset="1" stop-color="#98C1EC" stop-opacity="0"/>
</radialGradient>
<radialGradient id="paint6_radial_107:906" cx="0" cy="0" r="1" gradientUnits="userSpaceOnUse" gradientTransform="rotate(45) scale(261.63)">
<stop offset="0.295312" stop-color="#9AC3ED"/>
<stop offset="1" stop-color="#98C1EC" stop-opacity="0"/>
</radialGradient>
<radialGradient id="paint7_radial_107:906" cx="0" cy="0" r="1" gradientUnits="userSpaceOnUse" gradientTransform="translate(295 55) rotate(45) scale(261.63)">
<stop offset="0.295312" stop-color="#9AC3ED"/>
<stop offset="1" stop-color="#98C1EC" stop-opacity="0"/>
</radialGradient>
<radialGradient id="paint8_radial_107:906" cx="0" cy="0" r="1" gradientUnits="userSpaceOnUse" gradientTransform="translate(503.747 99.923) rotate(45) scale(11.3137)">
<stop stop-color="white"/>
<stop offset="1" stop-color="#78AFE7"/>
</radialGradient>
<radialGradient id="paint9_radial_107:906" cx="0" cy="0" r="1" gradientUnits="userSpaceOnUse" gradientTransform="translate(297.464 218.866) rotate(45) scale(11.3137)">
<stop stop-color="white"/>
<stop offset="1" stop-color="#78AFE7"/>
</radialGradient>
<radialGradient id="paint10_radial_107:906" cx="0" cy="0" r="1" gradientUnits="userSpaceOnUse" gradientTransform="translate(342.634 56.7529) rotate(45) scale(11.3137)">
<stop stop-color="white"/>
<stop offset="1" stop-color="#78AFE7"/>
</radialGradient>
<clipPath id="clip0_107:906">
<rect width="593" height="248" fill="white"/>
</clipPath>
</defs>
</svg>
