<svg width="593" height="248" fill="none" xmlns="http://www.w3.org/2000/svg"><g clip-path="url(#a)"><mask id="b" style="mask-type:alpha" x="0" y="0" width="593" height="248"><path d="M593 0H0v248h593V0z" fill="#fff"/></mask><g mask="url(#b)"><g opacity=".44"><path opacity=".8" d="M405 329.5c90.851 0 164.5-73.649 164.5-164.5C569.5 74.15 495.851.5 405 .5S240.5 74.15 240.5 165c0 90.851 73.649 164.5 164.5 164.5z" stroke="#0055FE"/><path opacity=".8" d="M405 284c65.722 0 119-53.278 119-119 0-65.722-53.278-119-119-119-65.722 0-119 53.278-119 119 0 65.722 53.278 119 119 119z" stroke="#0055FE" stroke-width="2"/><path opacity=".24" d="M405 287c67.379 0 122-54.621 122-122 0-67.379-54.621-122-122-122-67.379 0-122 54.621-122 122 0 67.379 54.621 122 122 122z" stroke="url(#c)" stroke-width="8"/><path opacity=".6" d="M405 409.5c135.034 0 244.5-109.466 244.5-244.5S540.034-79.5 405-79.5 160.5 29.966 160.5 165 269.966 409.5 405 409.5z" stroke="#0055FE"/><path opacity=".4" d="M405 489.5c179.216 0 324.5-145.284 324.5-324.5S584.216-159.5 405-159.5 80.5-14.216 80.5 165 225.784 489.5 405 489.5z" stroke="#0055FE"/><path opacity=".2" d="M405 569.5c223.399 0 404.5-181.101 404.5-404.5 0-223.4-181.101-404.5-404.5-404.5S.5-58.4.5 165C.5 388.399 181.601 569.5 405 569.5z" stroke="#0055FE"/></g><path fill-rule="evenodd" clip-rule="evenodd" d="M1033.3 250.5c-.1 0-.2 0-.4.1-.1.1-.2.1-.3.2-.1.1-.1.2-.2.3v.4c0 .2.1.3.2.4.1.1.2.2.4.2h.3c.1 0 .2-.1.3-.2.1-.1.2-.2.2-.3 0-.1.1-.2.1-.3 0-.1 0-.2-.1-.3 0-.1-.1-.2-.2-.3-.1-.1-.2-.1-.3-.2.2.1.1 0 0 0zm-409.9 66.9c-.1 0-.2 0-.3.1-.1.1-.2.1-.3.2-.1.1-.1.2-.2.3v.4c0 .2.1.3.2.4.1.1.3.2.4.2.2 0 .3 0 .5-.1s.3-.2.4-.4c.1-.2.1-.3.1-.5s-.1-.3-.2-.5c-.1-.1-.2-.1-.3-.2-.1.1-.2.1-.3.1zm-965.7-619.1c.1-.1.2-.1.2-.2.1-.1.1-.2.1-.3v-.3c0-.1-.1-.2-.2-.3-.1-.2-.3-.3-.5-.3s-.4 0-.6.1c-.1.1-.2.1-.2.2-.1.1-.1.2-.1.3v.3c0 .1.1.2.2.2.1.2.3.3.5.3s.4.1.6 0zM257-103.6c-.1-.1-.2-.1-.2-.2-.1-.1-.1-.2-.1-.3v-.3c0-.1.1-.2.2-.2.1-.2.3-.3.5-.3s.4 0 .6.1c.1.1.2.1.2.2.1.1.1.2.1.3v.3c0 .1-.1.2-.2.2-.1.2-.3.3-.6.3-.1 0-.3 0-.5-.1zm1046.1 34.8c-.2-.1-.3-.2-.4-.4-.1-.2-.2-.4-.2-.6 0-.2 0-.4.1-.6.1-.2.2-.4.3-.5.3-.3.7-.6 1.1-.7.4-.1.9 0 1.3.2.3.2.5.4.6.7.1.3.1.6 0 .9-.1.2-.2.4-.3.5-.3.3-.7.6-1.1.7-.6.1-1.1 0-1.4-.2zm-1394.6 430c-.3 0-.6.1-.9.3-.3.2-.4.4-.5.7-.1.3-.1.6-.1.9.1.3.2.6.4.8.2.2.5.4.8.4.3.1.6 0 .9-.1.3-.1.5-.3.7-.6.2-.3.3-.6.3-.9 0-.2 0-.4-.1-.6-.1-.2-.2-.4-.4-.5-.1-.1-.3-.3-.5-.3-.2-.1-.4-.1-.6-.1zM-387.3 96c.1-.1.2-.1.2-.2.1-.1.1-.3.1-.4 0-.1-.1-.3-.2-.4-.1-.2-.3-.3-.5-.3s-.4 0-.6.1c-.1.1-.2.1-.2.2-.1.1-.1.3-.1.4 0 .1.1.3.2.4.1.2.3.3.5.3.2.1.5 0 .6-.1zm1654.7 626.2-.2-.2c-.1-.1-.1-.2-.1-.3v-.3c0-.1.1-.2.1-.3.1-.2.3-.3.6-.3.2 0 .4 0 .6.1.1.1.2.1.2.2.1.1.1.2.1.3v.3c0 .1-.1.2-.2.2-.1.2-.3.3-.5.3-.1.1-.4.1-.6 0zM-544.4 448.9c-.1-.2-.1-.4 0-.6 0-.2.1-.4.2-.6.1-.2.3-.3.4-.4.2-.1.4-.2.6-.2.4-.2.9-.2 1.3-.1s.8.4 1 .8c.1.2.1.4 0 .6 0 .2-.1.4-.2.6-.1.2-.3.3-.4.4-.2.1-.4.2-.6.2-.4.2-.9.2-1.3.1s-.8-.4-1-.8zm-63.7-320.6c.1.1.2.1.2.2.1.1.1.2.1.3v.3c0 .1-.1.2-.2.3l-.1-1.1zM176-438.9c.1-.1.2-.1.2-.2.1-.2.2-.4.1-.6 0-.1-.1-.2-.1-.3-.1-.2-.3-.3-.5-.4h-.5c-.1.1-.3.1-.4.3-.1.1-.1.2-.1.3v.3c0 .1.1.2.1.3.1.2.3.3.5.4.3 0 .5 0 .7-.1zm1079.8 16.7c-.1-.1-.2-.1-.2-.2-.1-.1-.1-.2-.1-.3v-.3c0-.1.1-.2.2-.2.1-.2.3-.3.5-.3s.4 0 .6.1c.1.1.2.1.2.2s.1.2.1.3v.3c0 .1-.1.2-.2.2-.1.2-.3.3-.5.3s-.5 0-.6-.1zM232.4 721.1c-.2 0-.4-.1-.6-.2-.2-.1-.3-.3-.3-.6v-.3c0-.1.1-.2.2-.3.1-.1.2-.1.3-.2h.3c.2 0 .4.1.6.2.2.1.3.3.3.6v.3c0 .1-.1.2-.2.3-.1.1-.2.1-.3.2h-.3z" fill="#fff"/><path d="M632.9 155.8c0 64.3-52.2 116.5-116.5 116.5s-116.5-52.2-116.5-116.5S452.1 39.3 516.4 39.3s116.5 52.1 116.5 116.5z" fill="#0055FE" opacity=".24"/><path d="M170 110c12.15 0 22-9.85 22-22s-9.85-22-22-22-22 9.85-22 22 9.85 22 22 22z" fill="url(#d)"/><path d="M295 165c0-60.8 49.2-110 110-110s110 49.2 110 110-49.2 110-110 110-110-49.2-110-110z" fill="#0055FE"/><path d="M387.386 219.003c9.915 9.333 25.37 9.328 35.286-.005l14.49-13.647v-36.648l-38.636 36.366v-9.02a7.423 7.423 0 0 0-2.334-5.404L350 147.163v33.44c0 2.044.844 4.001 2.334 5.404l35.052 32.991v.005z" fill="#fff"/><path d="m404.081 153.525-11.042 11.055a1.3 1.3 0 0 0 0 1.837l11.042 11.055a1.295 1.295 0 0 0 1.835 0l11.042-11.055a1.3 1.3 0 0 0 0-1.837l-11.042-11.055a1.295 1.295 0 0 0-1.835 0z" fill="#fff"/><path d="m457.671 144.988-35.057-32.991c-9.915-9.333-25.375-9.328-35.286.005l-14.49 13.647v36.653l38.636-36.366v9.02c0 2.045.844 4.006 2.334 5.404L460 183.837v-33.445a7.423 7.423 0 0 0-2.334-5.404h.005z" fill="#fff"/><path d="M405 275c60.751 0 110-49.249 110-110S465.751 55 405 55s-110 49.249-110 110 49.249 110 110 110z" fill="url(#e)"/><path d="M405 269.5c57.714 0 104.5-46.786 104.5-104.5S462.714 60.5 405 60.5 300.5 107.286 300.5 165 347.286 269.5 405 269.5z" stroke="url(#f)" stroke-width="11"/><path d="M405 269.5c57.714 0 104.5-46.786 104.5-104.5S462.714 60.5 405 60.5 300.5 107.286 300.5 165 347.286 269.5 405 269.5z" stroke="url(#g)" stroke-width="11"/><path d="M405 269.5c57.714 0 104.5-46.786 104.5-104.5S462.714 60.5 405 60.5 300.5 107.286 300.5 165 347.286 269.5 405 269.5z" stroke="url(#h)" stroke-width="11" opacity=".12"/><path d="M405 269.5c57.714 0 104.5-46.786 104.5-104.5S462.714 60.5 405 60.5 300.5 107.286 300.5 165 347.286 269.5 405 269.5z" stroke="url(#i)" stroke-width="11" opacity=".12"/><path d="M405 275c60.751 0 110-49.249 110-110S465.751 55 405 55s-110 49.249-110 110 49.249 110 110 110z" fill="url(#j)" opacity=".16"/><path d="M562 11c6.075 0 11-4.925 11-11s-4.925-11-11-11-11 4.925-11 11 4.925 11 11 11z" fill="#DCEAF9"/><path d="M507.7 107.9a4 4 0 1 0 0-8 4 4 0 0 0 0 8z" fill="url(#k)"/><path d="M301.5 226.9a4 4 0 1 0 0-8 4 4 0 0 0 0 8z" fill="url(#l)"/><path d="M346.6 64.8a4 4 0 1 0 0-8 4 4 0 0 0 0 8z" fill="url(#m)"/></g></g><defs><radialGradient id="i" cx="0" cy="0" r="1" gradientTransform="rotate(135 168.317 166.353) scale(261.63)"><stop offset=".295" stop-color="#9AC3ED"/><stop offset="1" stop-color="#98C1EC" stop-opacity="0"/></radialGradient><radialGradient id="e" cx="0" cy="0" r="1" gradientTransform="rotate(45 81.168 383.619) scale(261.63)"><stop offset=".295" stop-color="#9AC3ED"/><stop offset="1" stop-color="#98C1EC" stop-opacity="0"/></radialGradient><radialGradient id="f" cx="0" cy="0" r="1" gradientTransform="rotate(45 81.168 383.619) scale(261.63)"><stop offset=".295" stop-color="#9AC3ED"/><stop offset="1" stop-color="#98C1EC" stop-opacity="0"/></radialGradient><radialGradient id="g" cx="0" cy="0" r="1" gradientTransform="rotate(45 81.168 383.619) scale(261.63)"><stop offset=".295" stop-color="#9AC3ED"/><stop offset="1" stop-color="#98C1EC" stop-opacity="0"/></radialGradient><radialGradient id="h" cx="0" cy="0" r="1" gradientTransform="rotate(135 168.317 166.353) scale(261.63)"><stop offset=".295" stop-color="#9AC3ED"/><stop offset="1" stop-color="#98C1EC" stop-opacity="0"/></radialGradient><radialGradient id="d" cx="0" cy="0" r="1" gradientTransform="matrix(37 37 -37 37 148 65.998)"><stop offset=".295" stop-color="#9AC3ED"/><stop offset="1" stop-color="#98C1EC" stop-opacity="0"/></radialGradient><radialGradient id="j" cx="0" cy="0" r="1" gradientTransform="rotate(45 81.168 383.619) scale(261.63)"><stop offset=".295" stop-color="#9AC3ED"/><stop offset="1" stop-color="#98C1EC" stop-opacity="0"/></radialGradient><radialGradient id="k" cx="0" cy="0" r="1" gradientTransform="rotate(15 -137.974 1958.833) scale(11.3137)"><stop stop-color="#fff"/><stop offset="1" stop-color="#78AFE7"/></radialGradient><radialGradient id="l" cx="0" cy="0" r="1" gradientTransform="rotate(15 -692.847 1234.867) scale(11.3137)"><stop stop-color="#fff"/><stop offset="1" stop-color="#78AFE7"/></radialGradient><radialGradient id="m" cx="0" cy="0" r="1" gradientTransform="rotate(15 -54.575 1325.36) scale(11.3137)"><stop stop-color="#fff"/><stop offset="1" stop-color="#78AFE7"/></radialGradient><linearGradient id="c" x1="464.014" y1="267.172" x2="346.014" y2="62.796"><stop stop-color="#0055FE"/><stop offset="1" stop-color="#0055FE" stop-opacity="0"/></linearGradient><clipPath id="a"><path fill="#fff" d="M0 0h593v248H0z"/></clipPath></defs></svg>